<?xml version="1.0" encoding="UTF-8"?>
<svg xmlns="http://www.w3.org/2000/svg"
     xmlns:xlink="http://www.w3.org/1999/xlink"
     version="1.2"
     width="360mm" height="360mm" viewBox="0 0 360 360"
     stroke="none"
     fill="#000000"
     stroke-width="0.3"
     font-size="3.88"
>
<defs>
  <marker id="arrow" markerWidth="15" markerHeight="7" refX="5" refY="3.5" orient="auto" markerUnits="strokeWidth">
    <path d="M0,0 L15,3.5 L0,7 z" stroke="context-stroke" fill="context-stroke"/>
  </marker>
</defs>
<g stroke-width="1.22" fill="#000000" fill-opacity="0.000" stroke="#D3D3D3" id="img-ee3aebc0-1">
  <g transform="translate(264.8,266.27)">
    <path fill="none" d="M-10.72,-48.78 L10.72,48.78 " class="primitive"/>
  </g>
  <g transform="translate(203.03,149.85)">
    <path fill="none" d="M37.48,41.34 L-37.48,-41.34 " class="primitive"/>
  </g>
  <g transform="translate(290.39,157.12)">
    <path fill="none" d="M-29.54,33.88 L29.54,-33.88 " class="primitive"/>
  </g>
  <g transform="translate(264.8,266.27)">
    <path fill="none" d="M10.72,48.78 L-10.72,-48.78 " class="primitive"/>
  </g>
  <g transform="translate(205.6,63.58)">
    <path fill="none" d="M37.6,-25.09 L-37.6,25.09 " class="primitive"/>
  </g>
  <g transform="translate(292.97,70.85)">
    <path fill="none" d="M-26.75,-29.51 L26.75,29.51 " class="primitive"/>
  </g>
  <g transform="translate(203.03,149.85)">
    <path fill="none" d="M-37.48,-41.34 L37.48,41.34 " class="primitive"/>
  </g>
  <g transform="translate(205.6,63.58)">
    <path fill="none" d="M-37.6,25.09 L37.6,-25.09 " class="primitive"/>
  </g>
  <g transform="translate(92.63,76.35)">
    <path fill="none" d="M48.11,15.99 L-48.11,-15.99 " class="primitive"/>
  </g>
  <g transform="translate(290.39,157.12)">
    <path fill="none" d="M29.54,-33.88 L-29.54,33.88 " class="primitive"/>
  </g>
  <g transform="translate(292.97,70.85)">
    <path fill="none" d="M26.75,29.51 L-26.75,-29.51 " class="primitive"/>
  </g>
  <g transform="translate(92.63,76.35)">
    <path fill="none" d="M-48.11,-15.99 L48.11,15.99 " class="primitive"/>
  </g>
</g>
<g stroke-width="1.22" stroke="#D3D3D3" id="img-ee3aebc0-2">
  <g transform="translate(273.5,305.87)">
    <path fill="none" d="M4,-5.69 L2.02,9.18 -6.02,-3.49 " class="primitive"/>
  </g>
  <g transform="translate(171.86,115.47)">
    <path fill="none" d="M-0.65,6.93 L-6.31,-6.96 6.96,0.04 " class="primitive"/>
  </g>
  <g transform="translate(313.76,130.32)">
    <path fill="none" d="M-6.95,0.17 L6.18,-7.08 0.78,6.91 " class="primitive"/>
  </g>
  <g transform="translate(256.09,226.66)">
    <path fill="none" d="M-4,5.69 L-2.02,-9.18 6.02,3.49 " class="primitive"/>
  </g>
  <g transform="translate(175.82,83.46)">
    <path fill="none" d="M6.76,1.66 L-7.82,5.22 1.06,-6.88 " class="primitive"/>
  </g>
  <g transform="translate(313.41,93.4)">
    <path fill="none" d="M0.65,-6.93 L6.31,6.96 -6.96,-0.04 " class="primitive"/>
  </g>
  <g transform="translate(234.2,184.23)">
    <path fill="none" d="M0.65,-6.93 L6.31,6.96 -6.96,-0.04 " class="primitive"/>
  </g>
  <g transform="translate(235.38,43.71)">
    <path fill="none" d="M-6.76,-1.66 L7.82,-5.22 -1.06,6.88 " class="primitive"/>
  </g>
  <g transform="translate(53.45,63.33)">
    <path fill="none" d="M2.84,6.35 L-8.92,-2.96 6.08,-3.39 " class="primitive"/>
  </g>
  <g transform="translate(267.03,183.91)">
    <path fill="none" d="M6.95,-0.17 L-6.18,7.08 -0.78,-6.91 " class="primitive"/>
  </g>
  <g transform="translate(272.53,48.3)">
    <path fill="none" d="M-0.65,6.93 L-6.31,-6.96 6.96,0.04 " class="primitive"/>
  </g>
  <g transform="translate(131.82,89.38)">
    <path fill="none" d="M-2.84,-6.35 L8.92,2.96 -6.08,3.39 " class="primitive"/>
  </g>
</g>
<g font-size="4" stroke="#000000" stroke-opacity="0.000" fill="#000000" id="img-ee3aebc0-3">
</g>
<g stroke-width="0" stroke="#000000" stroke-opacity="0.000" fill="#40E0D0" id="img-ee3aebc0-4">
  <g transform="translate(250.79,202.53)">
    <circle cx="0" cy="0" r="14.7" class="primitive"/>
  </g>
  <g transform="translate(278.8,330)">
    <circle cx="0" cy="0" r="14.7" class="primitive"/>
  </g>
  <g transform="translate(255.94,30)">
    <circle cx="0" cy="0" r="14.7" class="primitive"/>
  </g>
  <g transform="translate(155.27,97.17)">
    <circle cx="0" cy="0" r="14.7" class="primitive"/>
  </g>
  <g transform="translate(330,111.7)">
    <circle cx="0" cy="0" r="14.7" class="primitive"/>
  </g>
  <g transform="translate(30,55.54)">
    <circle cx="0" cy="0" r="14.7" class="primitive"/>
  </g>
</g>
<g font-size="4" stroke="#000000" stroke-opacity="0.000" fill="#000000" id="img-ee3aebc0-5">
  <g transform="translate(250.79,202.53)">
    <g class="primitive">
      <text text-anchor="middle" dy="0.35em">elmag.org</text>
    </g>
  </g>
  <g transform="translate(278.8,330)">
    <g class="primitive">
      <text text-anchor="middle" dy="0.35em">skvor@fel.cvut.cz</text>
    </g>
  </g>
  <g transform="translate(255.94,30)">
    <g class="primitive">
      <text text-anchor="middle" dy="0.35em">elmag.fel.cvut.cz</text>
    </g>
  </g>
  <g transform="translate(155.27,97.17)">
    <g class="primitive">
      <text text-anchor="middle" dy="0.35em">147.32.200.193</text>
    </g>
  </g>
  <g transform="translate(330,111.7)">
    <g class="primitive">
      <text text-anchor="middle" dy="0.35em">147.32.223.51</text>
    </g>
  </g>
  <g transform="translate(30,55.54)">
    <g class="primitive">
      <text text-anchor="middle" dy="0.35em">argos.feld.cvut.cz</text>
    </g>
  </g>
</g>
</svg>
